<svg width="37" height="40" viewBox="0 0 37 40" fill="none" xmlns="http://www.w3.org/2000/svg">
<path d="M34.0272 14.1659L31.9593 13.6117C32.433 12.8473 32.7855 12.0141 33.0042 11.1418C33.8888 7.84053 31.9229 4.43549 28.6216 3.55092C25.8472 2.80751 23.3155 4.8461 21.3852 7.26765C20.901 4.36047 19.6741 1.15342 16.6482 0.342641C13.3469 -0.541928 9.94189 1.42398 9.05733 4.72523C8.78416 5.74468 8.69334 6.62416 8.72733 7.38676L6.65934 6.83264C4.77267 6.32711 2.82724 7.45031 2.32171 9.33698L1.40506 12.758C0.899522 14.6446 2.02272 16.5901 3.90939 17.0956L0.701114 29.0691C0.19558 30.9557 1.31878 32.9012 3.20545 33.4067L23.7314 38.9066C25.618 39.4121 27.5635 38.2889 28.069 36.4023L31.2773 24.4288C33.164 24.9343 35.1094 23.8112 35.6149 21.9245L36.5316 18.5035C37.0371 16.6168 35.9139 14.6714 34.0272 14.1659ZM27.705 6.97191C29.1196 7.35094 29.9623 8.81056 29.5832 10.2251C28.8958 12.7909 27.825 12.504 27.1853 12.3325L22.9467 11.1968C24.543 8.73529 26.4649 6.63962 27.705 6.97191ZM12.4783 5.64188C12.8573 4.2273 14.317 3.38459 15.7315 3.76363C17.2505 4.17062 17.9644 7.1577 18.1162 9.90251L13.5013 8.66595C12.8616 8.49453 11.7908 8.20762 12.4783 5.64188ZM5.74269 10.2536L17.7161 13.4619L16.7995 16.8829L4.82604 13.6746L5.74269 10.2536ZM4.1221 29.9857L7.33038 18.0123L15.8828 20.3039L12.6746 32.2773L4.1221 29.9857ZM24.648 35.4856L16.0956 33.194L19.3038 21.2205L27.8563 23.5122L24.648 35.4856ZM20.2205 17.7995L21.0982 14.524L21.1662 14.3864L33.1106 17.5868L32.1957 21.0083L20.2205 17.7995Z" fill="#0A0A0A"/>
</svg>
