<svg width="79" height="40" viewBox="0 0 79 40" fill="none" xmlns="http://www.w3.org/2000/svg">
<path d="M44.1994 0H27.0475V22.1277H31.3644V15.6596H37.9553V11.5098H31.3644V4.14979H44.1994V0Z" fill="black"/>
<path d="M31.3644 22.9788H27.0475V27.6166H31.3644V22.9788Z" fill="black"/>
<path d="M44.1994 0H27.0475V22.1277H31.3644V15.6596H37.9553V11.5098H31.3644V4.14979H44.1994V0Z" fill="black"/>
<path d="M8.36411 26.8272C8.32657 26.8109 8.28907 26.7945 8.25162 26.7779C6.63279 26.0471 5.21954 25.0553 4.01183 23.8025C2.82982 22.5498 1.90478 21.0752 1.23669 19.3787C0.568602 17.6823 0.234558 15.8684 0.234558 13.937C0.234558 12.0057 0.568602 10.1918 1.23669 8.49532C1.90478 6.79885 2.82982 5.32425 4.01183 4.07149C5.21954 2.81872 6.63279 1.82695 8.25162 1.09617C9.89613 0.36539 11.6691 0 13.5706 0C15.7548 0 17.6948 0.456736 19.3907 1.37021C21.1123 2.28369 22.5898 3.49731 23.8232 5.01106L20.8168 8.06468C19.9945 6.86413 18.9924 5.91149 17.8104 5.20681C16.6284 4.50213 15.2151 4.14979 13.5706 4.14979C12.2602 4.14979 11.0524 4.41077 9.94754 4.93277C8.86832 5.42864 7.93041 6.1203 7.13386 7.00766C6.3373 7.86893 5.72061 8.89987 5.28377 10.1004C4.84693 11.301 4.62853 12.5799 4.62853 13.937C4.62853 15.3203 4.84693 16.6122 5.28377 17.8128C5.72061 18.9872 6.3373 20.0182 7.13386 20.9055C7.93041 21.7668 8.86832 22.4584 9.94754 22.9804C9.96187 22.9868 9.97624 22.9933 9.99061 22.9996L8.36411 26.8272Z" fill="black"/>
<path d="M18.3298 26.875C19.8459 26.2225 21.1435 25.2307 22.2227 23.8997V27.6188H26.2313V11.7244H13.3192V15.8742H22.2227C21.8116 18.2492 20.8352 20.1544 19.2934 21.5899C17.7774 22.9993 15.8374 23.7039 13.4734 23.7039C12.5701 23.7039 11.7156 23.5862 10.91 23.3505L9.27722 27.1931C10.5985 27.6335 11.9972 27.8537 13.4734 27.8537C15.195 27.8537 16.8138 27.5275 18.3298 26.875Z" fill="black"/>
<path d="M1.55012 33.5531C1.55012 33.7233 1.59202 33.8616 1.67581 33.968C1.7596 34.0744 1.87481 34.1666 2.02144 34.2446C2.16808 34.3155 2.34264 34.3829 2.54513 34.4467C2.74762 34.5105 2.97107 34.5885 3.21546 34.6807C3.66932 34.8581 4.03241 35.1134 4.30473 35.4467C4.57705 35.773 4.71321 36.2198 4.71321 36.7871C4.71321 37.1347 4.65037 37.4573 4.52468 37.7552C4.40599 38.046 4.23841 38.3013 4.02194 38.5212C3.81246 38.7339 3.56458 38.9041 3.2783 39.0318C2.99202 39.1524 2.68478 39.2127 2.3566 39.2127C2.02144 39.2127 1.71072 39.1524 1.42444 39.0318C1.13815 38.9041 0.886783 38.7304 0.670323 38.5105C0.460847 38.2907 0.296757 38.0389 0.178055 37.7552C0.0593516 37.4644 0 37.1524 0 36.819H1.17307C1.17307 36.9892 1.1975 37.1524 1.24638 37.3084C1.30224 37.4644 1.37905 37.5992 1.47681 37.7127C1.58154 37.8261 1.70723 37.9183 1.85386 37.9892C2.0005 38.0531 2.16808 38.085 2.3566 38.085C2.73366 38.085 3.02344 37.968 3.22593 37.7339C3.43541 37.4999 3.54014 37.1949 3.54014 36.819C3.54014 36.5424 3.48428 36.3261 3.37256 36.1701C3.26084 36.0141 3.11072 35.89 2.92219 35.7978C2.74064 35.6985 2.53117 35.6169 2.29376 35.5531C2.05635 35.4821 1.80848 35.397 1.55012 35.2978C1.21496 35.163 0.939152 34.9538 0.722692 34.6701C0.506232 34.3793 0.398004 34.0283 0.398004 33.6169C0.398004 33.3261 0.446883 33.0602 0.544637 32.819C0.642391 32.5779 0.778551 32.3687 0.953115 32.1914C1.12768 32.0141 1.33017 31.8793 1.5606 31.7871C1.798 31.6878 2.05286 31.6382 2.32518 31.6382C2.72319 31.6382 3.06533 31.7198 3.35161 31.8829C3.64488 32.046 3.88229 32.2836 4.06383 32.5956L3.2783 33.3935C3.18752 33.1878 3.05835 33.0318 2.89077 32.9254C2.72319 32.819 2.54513 32.7658 2.3566 32.7658C2.11222 32.7658 1.9167 32.8403 1.77007 32.9892C1.62344 33.1382 1.55012 33.3261 1.55012 33.5531ZM12.1257 31.702V34.8297H14.608V31.702H15.7811V39.1488H14.608V35.9573H12.1257V39.1488H10.9527V31.702H12.1257ZM29.0921 35.4254C29.0921 35.9502 29.0014 36.4432 28.8198 36.9041C28.6382 37.3651 28.3834 37.7658 28.0552 38.1063C27.734 38.4467 27.35 38.7162 26.9031 38.9148C26.4632 39.1134 25.9849 39.2127 25.4682 39.2127C24.9515 39.2127 24.4697 39.1134 24.0228 38.9148C23.5829 38.7162 23.1989 38.4467 22.8707 38.1063C22.5495 37.7658 22.2981 37.3651 22.1166 36.9041C21.935 36.4432 21.8442 35.9502 21.8442 35.4254C21.8442 34.9006 21.935 34.4077 22.1166 33.9467C22.2981 33.4857 22.5495 33.085 22.8707 32.7446C23.1989 32.4041 23.5829 32.1347 24.0228 31.9361C24.4697 31.7375 24.9515 31.6382 25.4682 31.6382C25.9849 31.6382 26.4632 31.7375 26.9031 31.9361C27.35 32.1347 27.734 32.4041 28.0552 32.7446C28.3834 33.085 28.6382 33.4857 28.8198 33.9467C29.0014 34.4077 29.0921 34.9006 29.0921 35.4254ZM27.8981 35.4254C27.8981 35.0566 27.8388 34.7091 27.72 34.3829C27.6013 34.0566 27.4338 33.7765 27.2173 33.5424C27.0009 33.3013 26.7425 33.1134 26.4422 32.9786C26.149 32.8368 25.8243 32.7658 25.4682 32.7658C25.1121 32.7658 24.7839 32.8368 24.4836 32.9786C24.1904 33.1134 23.9355 33.3013 23.719 33.5424C23.5026 33.7765 23.335 34.0566 23.2163 34.3829C23.0976 34.7091 23.0382 35.0566 23.0382 35.4254C23.0382 35.8013 23.0976 36.1524 23.2163 36.4786C23.335 36.7978 23.5026 37.0779 23.719 37.319C23.9355 37.5531 24.1904 37.741 24.4836 37.8829C24.7839 38.0176 25.1121 38.085 25.4682 38.085C25.8243 38.085 26.149 38.0176 26.4422 37.8829C26.7425 37.741 27.0009 37.5531 27.2173 37.319C27.4338 37.0779 27.6013 36.7978 27.72 36.4786C27.8388 36.1524 27.8981 35.8013 27.8981 35.4254ZM35.1786 31.702H37.619C37.9542 31.702 38.2614 31.7587 38.5407 31.8722C38.827 31.9857 39.0749 32.1453 39.2844 32.351C39.4938 32.5566 39.6544 32.8049 39.7662 33.0956C39.8848 33.3864 39.9442 33.7091 39.9442 34.0637C39.9442 34.4183 39.8848 34.741 39.7662 35.0318C39.6544 35.3226 39.4938 35.5708 39.2844 35.7765C39.0749 35.9821 38.827 36.1417 38.5407 36.2552C38.2614 36.3687 37.9542 36.4254 37.619 36.4254H36.3517V39.1488H35.1786V31.702ZM36.3517 35.2978H37.619C37.9891 35.2978 38.2789 35.1843 38.4884 34.9573C38.7048 34.7304 38.813 34.4325 38.813 34.0637C38.813 33.6949 38.7048 33.397 38.4884 33.1701C38.2789 32.9432 37.9891 32.8297 37.619 32.8297H36.3517V35.2978ZM46.1308 31.702H48.5712C48.9063 31.702 49.2134 31.7587 49.4929 31.8722C49.779 31.9857 50.027 32.1453 50.2365 32.351C50.446 32.5566 50.6064 32.8049 50.7183 33.0956C50.8369 33.3864 50.8964 33.7091 50.8964 34.0637C50.8964 34.4183 50.8369 34.741 50.7183 35.0318C50.6064 35.3226 50.446 35.5708 50.2365 35.7765C50.027 35.9821 49.779 36.1417 49.4929 36.2552C49.2134 36.3687 48.9063 36.4254 48.5712 36.4254H47.3039V39.1488H46.1308V31.702ZM47.3039 35.2978H48.5712C48.9411 35.2978 49.231 35.1843 49.4405 34.9573C49.6567 34.7304 49.7652 34.4325 49.7652 34.0637C49.7652 33.6949 49.6567 33.397 49.4405 33.1701C49.231 32.9432 48.9411 32.8297 48.5712 32.8297H47.3039V35.2978ZM57.0826 31.702H61.6806V32.8297H58.2557V34.8297H59.921V35.9573H58.2557V38.0212H61.7435V39.1488H57.0826V31.702Z" fill="black"/>
<path d="M55.4822 0H45.0625V4.14979H51.1909V27.6596H55.5078V5.87051H55.5065L55.4822 0Z" fill="black"/>
<path d="M56.3908 4.14979H61.8309V0H56.374L56.3908 4.14979Z" fill="black"/>
<path d="M69.7091 6.25524H68.3911V1.1812H66.5938V0.0109863H71.4972V1.1812H69.7091V6.25524Z" fill="black"/>
<path d="M79 6.25524H77.682V1.88333L75.9492 6.25524H75.3778L73.645 1.88333V6.25524H72.3362V0.0109863H74.1704L75.6635 3.78375L77.1567 0.0109863H79V6.25524Z" fill="black"/>
</svg>
