<svg width="38" height="38" viewBox="0 0 38 38" fill="none" xmlns="http://www.w3.org/2000/svg">
<path d="M36.1992 6.62031C35.7597 6.09287 35.2095 5.66867 34.5876 5.37784C33.9657 5.087 33.2874 4.93666 32.6008 4.9375H7.3383L7.27267 4.38906C7.13838 3.24909 6.59046 2.19802 5.73282 1.43512C4.87517 0.672224 3.76741 0.250534 2.61955 0.25L2.27267 0.25C1.85827 0.25 1.46085 0.41462 1.16782 0.707646C0.874795 1.00067 0.710175 1.3981 0.710175 1.8125C0.710175 2.2269 0.874795 2.62433 1.16782 2.91735C1.46085 3.21038 1.85827 3.375 2.27267 3.375H2.61955C3.00226 3.37505 3.37164 3.51556 3.65763 3.76987C3.94362 4.02418 4.12634 4.37461 4.17111 4.75469L6.32111 23.0359C6.54432 24.9372 7.4578 26.6903 8.88816 27.9625C10.3185 29.2347 12.1662 29.9375 14.0805 29.9375H30.3977C30.8121 29.9375 31.2095 29.7729 31.5025 29.4799C31.7956 29.1868 31.9602 28.7894 31.9602 28.375C31.9602 27.9606 31.7956 27.5632 31.5025 27.2701C31.2095 26.9771 30.8121 26.8125 30.3977 26.8125H14.0805C13.1134 26.8098 12.1708 26.508 11.3819 25.9485C10.5931 25.3891 9.9966 24.5993 9.67424 23.6875H28.2992C30.1309 23.6876 31.9045 23.0441 33.3099 21.8694C34.7153 20.6948 35.6634 19.0636 35.9883 17.2609L37.2149 10.4578C37.3373 9.78282 37.3098 9.08917 37.1343 8.426C36.9588 7.76283 36.6395 7.14637 36.1992 6.62031ZM34.1477 9.90312L32.9196 16.7062C32.7244 17.7891 32.1547 18.7687 31.31 19.4737C30.4653 20.1788 29.3995 20.5642 28.2992 20.5625H9.17736L7.70705 8.0625H32.6008C32.8303 8.06113 33.0573 8.11034 33.2657 8.20665C33.4741 8.30295 33.6586 8.44398 33.8063 8.6197C33.954 8.79542 34.0611 9.00152 34.1201 9.22334C34.1791 9.44516 34.1885 9.67726 34.1477 9.90312Z" fill="#5633D5"/>
<path d="M11.6477 37.75C13.3736 37.75 14.7727 36.3509 14.7727 34.625C14.7727 32.8991 13.3736 31.5 11.6477 31.5C9.92179 31.5 8.52267 32.8991 8.52267 34.625C8.52267 36.3509 9.92179 37.75 11.6477 37.75Z" fill="#5633D5"/>
<path d="M27.2727 37.75C28.9986 37.75 30.3977 36.3509 30.3977 34.625C30.3977 32.8991 28.9986 31.5 27.2727 31.5C25.5468 31.5 24.1477 32.8991 24.1477 34.625C24.1477 36.3509 25.5468 37.75 27.2727 37.75Z" fill="#5633D5"/>
</svg>
