<svg width="38" height="38" viewBox="0 0 38 38" fill="none" xmlns="http://www.w3.org/2000/svg">
<path d="M31.5 11.1875H28.7844C29.6678 10.4087 30.3691 9.44512 30.8384 8.365C31.3077 7.28487 31.5336 6.1147 31.5 4.9375C31.5 4.5231 31.3354 4.12567 31.0424 3.83265C30.7493 3.53962 30.3519 3.375 29.9375 3.375C29.5231 3.375 29.1257 3.53962 28.8326 3.83265C28.5396 4.12567 28.375 4.5231 28.375 4.9375C28.375 9.03438 24.6703 10.4531 21.8531 10.9391C22.8929 9.0954 23.5189 7.04745 23.6875 4.9375C23.6875 3.6943 23.1936 2.50201 22.3146 1.62294C21.4355 0.74386 20.2432 0.25 19 0.25C17.7568 0.25 16.5645 0.74386 15.6854 1.62294C14.8064 2.50201 14.3125 3.6943 14.3125 4.9375C14.4811 7.04745 15.1071 9.0954 16.1469 10.9391C13.3297 10.4531 9.625 9.03438 9.625 4.9375C9.625 4.5231 9.46038 4.12567 9.16735 3.83265C8.87433 3.53962 8.4769 3.375 8.0625 3.375C7.6481 3.375 7.25067 3.53962 6.95765 3.83265C6.66462 4.12567 6.5 4.5231 6.5 4.9375C6.46642 6.1147 6.6923 7.28487 7.16162 8.365C7.63093 9.44512 8.33218 10.4087 9.21562 11.1875H6.5C4.8424 11.1875 3.25269 11.846 2.08058 13.0181C0.90848 14.1902 0.25 15.7799 0.25 17.4375L0.25 19C0.25 19.8288 0.57924 20.6237 1.16529 21.2097C1.75134 21.7958 2.5462 22.125 3.375 22.125V29.9375C3.37748 32.0087 4.20138 33.9944 5.66597 35.459C7.13056 36.9236 9.11626 37.7475 11.1875 37.75H26.8125C28.8837 37.7475 30.8694 36.9236 32.334 35.459C33.7986 33.9944 34.6225 32.0087 34.625 29.9375V22.125C35.4538 22.125 36.2487 21.7958 36.8347 21.2097C37.4208 20.6237 37.75 19.8288 37.75 19V17.4375C37.75 15.7799 37.0915 14.1902 35.9194 13.0181C34.7473 11.846 33.1576 11.1875 31.5 11.1875ZM19 3.375C19.4144 3.375 19.8118 3.53962 20.1049 3.83265C20.3979 4.12567 20.5625 4.5231 20.5625 4.9375C20.3739 6.59817 19.8418 8.20142 19 9.64531C18.1582 8.20142 17.6261 6.59817 17.4375 4.9375C17.4375 4.5231 17.6021 4.12567 17.8951 3.83265C18.1882 3.53962 18.5856 3.375 19 3.375ZM3.375 17.4375C3.375 16.6087 3.70424 15.8138 4.29029 15.2278C4.87634 14.6417 5.6712 14.3125 6.5 14.3125H17.4375V19H3.375V17.4375ZM6.5 29.9375V22.125H17.4375V34.625H11.1875C9.9443 34.625 8.75201 34.1311 7.87294 33.2521C6.99386 32.373 6.5 31.1807 6.5 29.9375ZM31.5 29.9375C31.5 31.1807 31.0061 32.373 30.1271 33.2521C29.248 34.1311 28.0557 34.625 26.8125 34.625H20.5625V22.125H31.5V29.9375ZM20.5625 19V14.3125H31.5C32.3288 14.3125 33.1237 14.6417 33.7097 15.2278C34.2958 15.8138 34.625 16.6087 34.625 17.4375V19H20.5625Z" fill="#5633D5"/>
</svg>
