<svg width="30" height="38" viewBox="0 0 30 38" fill="none" xmlns="http://www.w3.org/2000/svg">
<path d="M28.2486 27.2639C28.2157 27.2169 25.8117 24.4232 25.8117 24.4232C26.6852 23.7797 27.2741 22.8217 27.454 21.7519C27.634 20.682 27.3907 19.584 26.7758 18.6903C26.7367 18.6339 23.8256 15.4176 23.8256 15.4176C24.5538 15.0504 25.1475 14.4627 25.5222 13.7383C25.8444 13.1178 25.9892 12.4203 25.9406 11.7228C25.892 11.0253 25.6519 10.3547 25.2467 9.78485C25.2138 9.73477 17.9487 1.51175 17.9487 1.51175C17.5675 1.11295 17.1096 0.795533 16.6024 0.57867C16.0952 0.361808 15.5493 0.25 14.9977 0.25C14.446 0.25 13.9002 0.361808 13.393 0.57867C12.8858 0.795533 12.4278 1.11295 12.0467 1.51175C12.0467 1.51175 4.77993 9.73477 4.74706 9.78172C4.34187 10.3516 4.10176 11.0222 4.05316 11.7197C4.00456 12.4172 4.14935 13.1146 4.4716 13.7352C4.84624 14.4596 5.43996 15.0473 6.16817 15.4145C6.16817 15.4145 3.25865 18.6308 3.21796 18.6871C2.60303 19.5809 2.3598 20.6788 2.53972 21.7487C2.71964 22.8186 3.3086 23.7766 4.18206 24.4201C4.18206 24.4201 1.77807 27.2138 1.7452 27.2639C1.26072 27.9683 0.977782 28.7917 0.926902 29.6451C0.876022 30.4985 1.05914 31.3497 1.45649 32.1067C1.85384 32.8637 2.45035 33.4979 3.18166 33.9408C3.91298 34.3836 4.75134 34.6184 5.6063 34.6198H13.4318V36.1849C13.4318 36.6 13.5967 36.9981 13.8902 37.2916C14.1837 37.5851 14.5818 37.75 14.9969 37.75C15.412 37.75 15.8101 37.5851 16.1036 37.2916C16.3971 36.9981 16.562 36.6 16.562 36.1849V34.6198H24.3875C25.243 34.6196 26.0821 34.3856 26.8143 33.9432C27.5465 33.5008 28.144 32.8667 28.5421 32.1095C28.9402 31.3523 29.1238 30.5007 29.0732 29.6467C29.0226 28.7927 28.7396 27.9687 28.2548 27.2639H28.2486ZM25.7679 30.6554C25.6372 30.9084 25.4391 31.1202 25.1955 31.2674C24.9518 31.4147 24.6721 31.4916 24.3875 31.4896H5.6063C5.32689 31.49 5.05248 31.4156 4.81155 31.2741C4.57063 31.1326 4.37197 30.9292 4.23621 30.685C4.10045 30.4408 4.03254 30.1647 4.03953 29.8854C4.04652 29.606 4.12816 29.3337 4.27597 29.0966L7.61745 25.2292H16.562C16.9771 25.2292 17.3752 25.0643 17.6687 24.7708C17.9622 24.4773 18.1271 24.0792 18.1271 23.6641C18.1271 23.249 17.9622 22.851 17.6687 22.5574C17.3752 22.2639 16.9771 22.099 16.562 22.099H6.65491C6.47173 22.0991 6.29177 22.0509 6.13311 21.9593C5.97444 21.8678 5.84266 21.7361 5.75099 21.5775C5.65933 21.4189 5.611 21.239 5.61088 21.0558C5.61075 20.8726 5.65883 20.6927 5.75029 20.5339L10.0105 15.8386H14.9969C15.412 15.8386 15.8101 15.6738 16.1036 15.3802C16.3971 15.0867 16.562 14.6886 16.562 14.2735C16.562 13.8585 16.3971 13.4604 16.1036 13.1669C15.8101 12.8733 15.412 12.7085 14.9969 12.7085H7.95394C7.80922 12.7136 7.66602 12.6775 7.54104 12.6043C7.41607 12.5311 7.31446 12.424 7.24808 12.2953C7.19271 12.1945 7.165 12.081 7.16775 11.9661C7.17049 11.8511 7.20361 11.739 7.26373 11.6411L14.3881 3.58237C14.4627 3.49487 14.5554 3.4246 14.6599 3.37641C14.7643 3.32822 14.8779 3.30327 14.993 3.30327C15.108 3.30327 15.2216 3.32822 15.3261 3.37641C15.4305 3.4246 15.5232 3.49487 15.5979 3.58237L22.7191 11.6395C22.7796 11.7373 22.8131 11.8493 22.8161 11.9643C22.8191 12.0792 22.7916 12.1929 22.7363 12.2937C22.6708 12.4212 22.5708 12.5278 22.4476 12.6011C22.3244 12.6744 22.1831 12.7116 22.0398 12.7085H20.6813C20.3801 12.7126 20.0863 12.8031 19.835 12.9692C19.5836 13.1353 19.3852 13.3701 19.2633 13.6456C19.1413 13.9211 19.101 14.2258 19.1471 14.5235C19.1931 14.8212 19.3237 15.0995 19.5231 15.3253L24.2435 20.5339C24.3349 20.6927 24.383 20.8726 24.3829 21.0558C24.3828 21.239 24.3344 21.4189 24.2428 21.5775C24.1511 21.7361 24.0193 21.8678 23.8606 21.9593C23.702 22.0509 23.522 22.0991 23.3388 22.099H23.0931C22.7954 22.1036 22.5051 22.1924 22.2557 22.3551C22.0064 22.5179 21.8082 22.748 21.6843 23.0187C21.5603 23.2894 21.5155 23.5897 21.5552 23.8848C21.5949 24.1799 21.7173 24.4578 21.9083 24.6861L25.7115 29.0966C25.8591 29.3272 25.9421 29.5932 25.952 29.8667C25.9619 30.1403 25.8983 30.4116 25.7679 30.6523V30.6554Z" fill="#5633D5"/>
</svg>
